# xmcd
#
# Track frame offsets: 
#        150
#        19022
#        30955
#        45720
#        66315
#        88430
#        115897
#        147070
#        169462
#        181785
#        205827
#        225247
#
# Disc length: 3289 seconds
#
# Revision: 4
# Processed by: cddbd v1.5.2PL0 Copyright (c) Steve Scherf et al.
# Submitted via: ExactAudioCopy v1.3
#
DISCID=9b0cd70c
DTITLE=Muddy Waters - Hoochie Coochie Man
DYEAR=1996
DGENRE=Blues
TTITLE0=Country Boy
TTITLE1=Baby Please Don't Go
TTITLE2=Hoochie Coochie Man
TTITLE3=Sittin' and Thinkin'
TTITLE4=19 Years Old
TTITLE5=County Jail
TTITLE6=Long Distance Call
TTITLE7=Rock Me Baby
TTITLE8=Sweet Little Angel
TTITLE9=Rosalie
TTITLE10=All Night Long
TTITLE11=Early Morning Blues
EXTD=YEAR: 1964 ID3G:   0
EXTT0=
EXTT1=
EXTT2=
EXTT3=
EXTT4=
EXTT5=
EXTT6=
EXTT7=
EXTT8=
EXTT9=
EXTT10=
EXTT11=
PLAYORDER=
